<svg xmlns="http://www.w3.org/2000/svg" viewBox="0 0 32 32" fill="none">
  <rect width="32" height="32" rx="8" fill="#4F46E5"/>
  <path d="M9 8h10l-3 4h-7V8z" fill="#A5B4FC" opacity="0.6"/>
  <path d="M8 13h12v2H8z" fill="#E0E7FF"/>
  <path d="M8 17h10v2H8z" fill="#E0E7FF" opacity="0.8"/>
  <path d="M8 21h8v2H8z" fill="#E0E7FF" opacity="0.6"/>
  <path d="M22 15l4 4-4 4V15z" fill="#FCD34D"/>
  <circle cx="23" cy="9" r="2" fill="#FCD34D"/>
  <path d="M23 5v1.5M25.8 6.2l-1.06 1.06M27 9h-1.5M25.8 11.8l-1.06-1.06M23 13v-1.5M20.2 11.8l1.06-1.06M19 9h1.5M20.2 6.2l1.06 1.06" stroke="#FCD34D" stroke-width="0.7" stroke-linecap="round"/>
</svg>
